<svg xmlns="http://www.w3.org/2000/svg" xmlns:xlink="http://www.w3.org/1999/xlink" width="143" height="211"><defs><path id="a" d="M2.98.455h30.04A2.98 2.98 0 0 1 36 3.435v19.04a2.98 2.98 0 0 1-2.98 2.98H2.98A2.98 2.98 0 0 1 0 22.475V3.435A2.98 2.98 0 0 1 2.98.455z"/><path id="d" d="M17.571 11.984L37 27.455H-2z"/><filter id="c" width="115.4%" height="138.8%" x="-7.7%" y="-19.4%" filterUnits="objectBoundingBox"><feOffset in="SourceAlpha" result="shadowOffsetOuter1"/><feGaussianBlur in="shadowOffsetOuter1" result="shadowBlurOuter1" stdDeviation="1"/><feColorMatrix in="shadowBlurOuter1" values="0 0 0 0 0.22745098 0 0 0 0 0.329411765 0 0 0 0 0.4 0 0 0 0.2 0"/></filter><linearGradient id="e" x1="34.602%" x2="98.512%" y1="31.233%" y2="112.216%"><stop offset="0%" stop-color="#1173C9"/><stop offset="67.657%" stop-color="#3295E7" stop-opacity=".323"/><stop offset="100%" stop-color="#42A5F5" stop-opacity="0"/></linearGradient><linearGradient id="h" x1="100%" x2="37.513%" y1="0%" y2="71.603%"><stop offset="0%" stop-color="#42A5F5" stop-opacity=".125"/><stop offset="100%" stop-color="#42A5F5"/></linearGradient><path id="g" d="M1.689 0H34.31C35.244 0 36 .756 36 1.689v2.357l-17.083 11.04c-.558.361-1.276.361-1.834 0L0 4.047V1.69C0 .756.756 0 1.689 0z"/><filter id="f" width="127.8%" height="165.1%" x="-13.9%" y="-26%" filterUnits="objectBoundingBox"><feOffset dy="1" in="SourceAlpha" result="shadowOffsetOuter1"/><feGaussianBlur in="shadowOffsetOuter1" result="shadowBlurOuter1" stdDeviation="1.5"/><feColorMatrix in="shadowBlurOuter1" values="0 0 0 0 0.22745098 0 0 0 0 0.329411765 0 0 0 0 0.4 0 0 0 0.2 0"/></filter><linearGradient id="j" x1="100%" x2="0%" y1="51.538%" y2="51.538%"><stop offset="0%" stop-color="#42A5F5"/><stop offset="100%" stop-color="#0C74D5"/></linearGradient><path id="i" d="M71.026 160.867l.474-.002.474.002c6.974-.105 13.98-1.134 16.23-2.857C115.536 137.08 143 105.213 143 71.396 143 31.965 111.2 0 71.974 0c-.158 0-.316 0-.474.002A72.155 72.155 0 0 0 71.026 0C31.8 0 0 31.965 0 71.396c0 33.817 27.464 65.683 54.796 86.614 2.25 1.723 9.256 2.752 16.23 2.85v.007z"/><filter id="l" width="137.6%" height="125.5%" x="-18.8%" y="-11.5%" filterUnits="objectBoundingBox"><feOffset dy="2" in="SourceAlpha" result="shadowOffsetOuter1"/><feGaussianBlur in="shadowOffsetOuter1" result="shadowBlurOuter1" stdDeviation="6.5"/><feColorMatrix in="shadowBlurOuter1" result="shadowMatrixOuter1" values="0 0 0 0 0 0 0 0 0 0 0 0 0 0 0 0 0 0 0.1034024 0"/><feMerge><feMergeNode in="shadowMatrixOuter1"/><feMergeNode in="SourceGraphic"/></feMerge></filter><path id="m" d="M54.14 160.867l.36-.002.36.002c5.317-.105 10.657-1.134 12.372-2.857C88.066 137.08 109 105.213 109 71.396 109 31.965 84.761 0 54.86 0c-.12 0-.24 0-.36.002L54.14 0C24.238 0 0 31.965 0 71.396c0 33.817 20.934 65.683 41.768 86.614 1.715 1.723 7.055 2.752 12.371 2.85v.007z"/><filter id="o" width="177.4%" height="125.5%" x="-38.7%" y="-11.5%" filterUnits="objectBoundingBox"><feOffset dy="2" in="SourceAlpha" result="shadowOffsetOuter1"/><feGaussianBlur in="shadowOffsetOuter1" result="shadowBlurOuter1" stdDeviation="6.5"/><feColorMatrix in="shadowBlurOuter1" result="shadowMatrixOuter1" values="0 0 0 0 0 0 0 0 0 0 0 0 0 0 0 0 0 0 0.05 0"/><feMerge><feMergeNode in="shadowMatrixOuter1"/><feMergeNode in="SourceGraphic"/></feMerge></filter><path id="p" d="M26.5 160.865l.175.002c2.585-.105 5.182-1.134 6.016-2.857C42.821 137.08 53 105.213 53 71.396 53 31.965 41.214 0 26.675 0c-.058 0-.117 0-.175.002A9.913 9.913 0 0 0 26.325 0C11.785 0 0 31.965 0 71.396c0 33.817 10.179 65.683 20.309 86.614.834 1.723 3.43 2.752 6.016 2.85.058.007.116.006.175.005z"/><linearGradient id="r" x1="18.786%" x2="89.25%" y1="0%" y2="100%"><stop offset="0%" stop-color="#F78E4E"/><stop offset="100%" stop-color="#FFD286"/></linearGradient></defs><g fill="none" fill-rule="evenodd" transform="translate(0 10.69)"><path fill="#B0BEC5" d="M60 164.864h1v16.986h-1zM82 164.864h1v16.986h-1z"/><g transform="translate(53 174.855)"><mask id="b" fill="#fff"><use xlink:href="#a"/></mask><use fill="#2196F3" xlink:href="#a"/><g mask="url(#b)"><use fill="#000" filter="url(#c)" xlink:href="#d"/><use fill="#42A5F5" xlink:href="#d"/></g><path fill="url(#e)" mask="url(#b)" d="M-4-.545l28.356 26.524H37V-.545z"/><g mask="url(#b)"><use fill="#000" filter="url(#f)" xlink:href="#g"/><use fill="url(#h)" xlink:href="#g"/></g></g><mask id="k" fill="#fff"><use xlink:href="#i"/></mask><use fill="url(#j)" xlink:href="#i"/><path fill="#64B5F6" d="M5 39.967s10.571-1.998 22.021-1.998c11.45 0 22.979 1.998 22.979 1.998v6.994s-11.929-1.998-22.979-1.998C15.971 44.963 5 46.96 5 46.96v-6.994zm89 0s10.571-1.998 22.021-1.998c11.45 0 22.979 1.998 22.979 1.998v6.994s-11.929-1.998-22.979-1.998C104.971 44.963 94 46.96 94 46.96v-6.994z" mask="url(#k)"/><g filter="url(#l)" transform="translate(17)"><mask id="n" fill="#fff"><use xlink:href="#m"/></mask><use fill="url(#j)" xlink:href="#m"/><path fill="#64B5F6" d="M7 30.974s10.571-1.998 22.021-1.998c11.45 0 22.979 1.998 22.979 1.998v6.995S40.071 35.97 29.021 35.97C17.971 35.97 7 37.97 7 37.97v-6.995zm53 0s10.571-1.998 22.021-1.998c11.45 0 22.979 1.998 22.979 1.998v6.995S93.071 35.97 82.021 35.97C70.971 35.97 60 37.97 60 37.97v-6.995z" mask="url(#n)"/></g><g filter="url(#o)" transform="translate(45)"><mask id="q" fill="#fff"><use xlink:href="#p"/></mask><use fill="url(#j)" xlink:href="#p"/><path fill="#64B5F6" d="M4 23.98s10.571-1.998 22.021-1.998C37.471 21.982 49 23.98 49 23.98v6.994s-11.929-1.998-22.979-1.998C14.971 28.976 4 30.974 4 30.974V23.98z" mask="url(#q)"/></g><path fill="url(#r)" d="M55.993 158.31h31.014c.548 0 .993.445.993.994v5.013a.993.993 0 0 1-.993.993H55.993a.993.993 0 0 1-.993-.993v-5.013c0-.549.445-.994.993-.994z"/></g></svg>