<svg xmlns="http://www.w3.org/2000/svg" width="42" height="42"><g fill="none" fill-rule="evenodd"><path fill="#0F99F5" d="M42 21c0 11.597-9.402 21-21 21C9.4 42 0 32.597 0 21S9.4 0 21 0c11.598 0 21 9.403 21 21"/><path fill="#58E350" d="M7.812 35.133c-.098.174-1.054.282-.876.499.202.242-.333.243-.364.612a20.702 20.702 0 0 1-2.522-2.793c.05-.948.135-1.896-.082-2.786-.243-.994-.666-1.227-1.544-1.65-.543-.261-.85-1.368-1.16-1.842-.52-.793-.546-.852-.293-1.612.07-.201-.363-.412-.24-.754.112-.249.294-.438.545-.567.325-.238.66-1.635.117-1.824-.27-.094-.248.426-.718.24a2.88 2.88 0 0 1-.61-.346c-.01-.275-.02-.55-.02-.828 0-.39.013-.778.035-1.163.678.192-.24 1.664.668 1.876.3.071.703-.397.936-.023.236.379.794-.519 1.079-.585.572-.133 1.052.057 1.603.087.981.053 1.51.189 2.065 1.06.325.513.896.193 1.42.404.308.122.493.805.584.988.256.52.882 1.33 1.628 1.28.692-.046 1.92.232 2.241.97.28.643-.183 1.076-.54 1.53-.346.44-.065.735-.08 1.26-.014.528-.236 1.129-.515 1.585.026-.045-.514.681-.573.368-1.823-.014-1.153 4.033-3.221 2.897 0 .402.7.654.437 1.117zm23.936-4.273c.223-.838.063-1.725 1.009-2.085.157-.059.726-.828.746-.688.187 1.202-.209 1.866-.534 2.961-.274.918-1.494.836-1.221-.188zM20.763 9.917c0-.004-.343-.498-.372-.536-.598-.754.751-.69.486-.5.087.005.626 1.072.897 1.334.461.453-1.341 1.014-1.478.675.025-.12.088-.194.183-.23-.233-.038.284-.756.284-.743zM40.928 22.77c.072.538 1.044.144.355-.72-.233-.288-.357.71-.355.72zM34.172 6.31c-.114-.097-.46-.755-.429-1.063 4.56 3.364 7.658 8.494 8.213 14.34-.417.37-.869.762-.823 1.242.053.56-.034 1.099-.451 1.518-.582.579-1.568-3.227-1.758-3.635-.356.925-1.24-.963-1.988-.98-.487-.014-1.16.243-1.6-.08-.279-.204-.393-.423-.79-.337-.421.093-2.403-1.505-1.258-.228.23.257.339 1.312.972.915.084-.05.63-.61.733-.535.24.18.217.508.605.724.607.341-.285.786-.285 1.15-.004.55-1.62 1.336-2.098 1.54-2.301.993-2.177-3.665-4.102-4.173.542 1.65 1.636 3.254 2.633 4.66.568.802 1.745-.357 2.158.275.362.552-.548 1.665-.895 2.02-.721.744-1.757 1.234-1.965 2.338-.18.972.706 2.059.055 2.945-.638.868-1.272 1.065-1.476 2.21-.142.814-.82 1.7-1.37 2.315-2.02 2.252-3.35-.468-3.637-2.324-.107-.7-.61-1.154-.529-1.96.073-.717.536-1.44.304-2.137-.202-.613-1.16-1.691-1-2.28.298-1.112-.246-1.09-1.104-1.629-.568-.358-2.184.353-2.804.47-.86.163-1.453-1.03-1.938-1.536-.958-.995-.968-3.991.277-4.883 1.031-.743 1.155-2.42 2.665-2.24.575.069 3.332-1.318 3.428-.007.019.26-.44.567.08.613.238.021.51-.036.724.12.263.194.881.876 1.223.424.022-.341.333-.609.704-.44.876.403 1.23.266 2.032.344 1.17.111 1.416-1.618-.251-1.289-.939.188-.812-.756-1.265-1.157-.49-.434-.315.854-.55.988-.111.066-1.73-2.207-2.356-2.282-.14.33 1.614 1.557.982 1.675-.247.049-.273.541-.43.642-.255.164-.736-.401-.587-.4 1.945.024-.82-1.69-1.004-1.566-.365.245-1.099.061-1.232.45.055.138-.245.3-.307.318-.519.148-.182.689-.494.9a4.44 4.44 0 0 1-1.13.552c-.248.08-1.035-.497-.96-.879.192-1 .275-1.66 1.668-1.23.734.226-.656-1.452-.102-1.429.59.026 1.124-.57 1.542-.95.256-.231 1.171-.202 1.027-.635-.123-.38.501-.83.512-.738.088.616.005 1.246 1.02.773.332-.157.693.14.952.018-.066.031.63-1.074.648-.892-.065-.699.58-.264.897-.457-.021-.28-2.664.135-.971-1.22-.269-.274-.93.241-1.155.505-.291.335.232 1.042-.268 1.634-.74.87-.75-.795-1.355-.593-.638.213-1.228-.064-.865-.853.236-.513 1.206-.447 1.551-1.016.43-.714 1.493-1.224 2.354-1.247.63-.02 1.817.402 2.383.66 1.042.475-.342.645-.746.578.147.12.331.642.577.506.5-.275 1.337-.93 2.295-1.046a9.632 9.632 0 0 0 1.805-.382c.519-.172.896.395 1.31.365zM1.726 16.753c.101.606-.392 1.71-.639.606-.11-.492.137-.71-.408-.86a20.018 20.018 0 0 1 3.35-6.957c.178.07.301.117.301.109.006.263-.5.377-.326.77.235.528.56-.334.6-.416.188-.376 1.406-.84.943-1.164-.412-.281 1.098-1.202 1.53-1.192.683.02.422.915.534.987.495.326 1.183-.972 1.214.024.01.335-.233.565.174.758.24.116.582.229.273.507.94.185-.511.752-.647.837-.697.426-1.364-.009-2.043.422 1.11-.185.312.239.453.668.15.044 1.671.163.59.492-.136.039-1.344.603-1.303.318.07-.15.17-.28.301-.385-.78-.042-1.726.857-2.254 1.298-.47.393-.807.586-.931 1.184-.226 1.083-1.942.614-1.712 1.994zM20.03 3.44c-.758-.39-1.297 1.459-1.467 1.586-.122.095-1.073.848-1.147.747.516.398-2.13 1.036-2.55 1.145-.577.153-1.186.39-1.506.922-.126.208-.235.686-.546.731-.955.136-1.375-1.544-.924-2.112.254-.32.627-1.047.325-1.491-.114-.166-2.414-.26-1.89-.858.15-.17 2.12-.538 2.419-.578 1.367-.175 2.78-.37 4.159-.407.668-.019 1.29-.1 1.868.248.404.239.836-.153 1.259.067zM2.231 19.315c-.287.002-.494-.31-.688-.468-.172-.14-1.124-.253-1.286-.246l.005-.037c.537-.839 2.045.154 2.594.485.264.158-.647.266-.625.266zm1.988.154c-.124-.3-.982-.629-1.17-.242-.4.826 1.369.711 1.17.242zm5.52-8.374c-.381-.362-1.473-.354-1.488.387-.011.545 2.167.26 1.489-.387zm10.117-1.508c.121-.002.03 0 .004 0 1.039-.026-.081 1.473-.601.97-.224-.212.237-.958.597-.97zM6.68 7.21c.01-.28 1.909-.27 1.486-.828-.076-.102-.424-.223-.827-.337.383-.32.774-.63 1.18-.923.165.136 1.221.715 1.183.802-.205.447-.104.266.294.554.582.421-.414.552-.683.484-.474-.116-.024.502-.375.583-.634.144-.516.538-1.165.027-.139-.108-1.102-.15-1.093-.362z"/><path fill="#FFF" d="M20.482 22.062l.763 11.475 3.61-1.533L26.1 19.678l6.22-2.64a1.81 1.81 0 0 0-1.414-3.333l-6.22 2.64-9.731-7.668-3.61 1.532 7.724 8.52-6.676 2.834-2.896-2.704-1.666.708 2.122 4.998 2.121 5 1.667-.708.066-3.961 6.676-2.834z"/></g></svg>