<svg xmlns="http://www.w3.org/2000/svg" width="28" height="34"><g fill-rule="nonzero" fill="none"><path d="M14 1.731l-12.375 5.5V15.5c0 7.757 5.316 14.97 12.375 16.84 7.059-1.87 12.375-9.083 12.375-16.84V7.231L14 1.731z" stroke="#91CEFF" stroke-width="2.25" fill="#2196F3"/><path d="M16.625 18.5h-.593l-.21-.203A4.853 4.853 0 0 0 17 15.125 4.875 4.875 0 1 0 12.125 20a4.853 4.853 0 0 0 3.172-1.177l.203.21v.592l3.75 3.742 1.117-1.117-3.742-3.75zm-4.5 0a3.37 3.37 0 0 1-3.375-3.375 3.37 3.37 0 0 1 3.375-3.375 3.37 3.37 0 0 1 3.375 3.375 3.37 3.37 0 0 1-3.375 3.375z" fill="#F1FAFF"/></g></svg>